<svg width="33" height="31" viewBox="0 0 33 31" fill="none" xmlns="http://www.w3.org/2000/svg">
<g id="shopping-cart 1">
<path id="Vector" d="M12.375 28.4168C13.1344 28.4168 13.75 27.8385 13.75 27.1252C13.75 26.4118 13.1344 25.8335 12.375 25.8335C11.6156 25.8335 11 26.4118 11 27.1252C11 27.8385 11.6156 28.4168 12.375 28.4168Z" stroke="black" stroke-width="2" stroke-linecap="round" stroke-linejoin="round"/>
<path id="Vector_2" d="M27.5 28.4168C28.2594 28.4168 28.875 27.8385 28.875 27.1252C28.875 26.4118 28.2594 25.8335 27.5 25.8335C26.7406 25.8335 26.125 26.4118 26.125 27.1252C26.125 27.8385 26.7406 28.4168 27.5 28.4168Z" stroke="black" stroke-width="2" stroke-linecap="round" stroke-linejoin="round"/>
<path id="Vector_3" d="M1.375 1.2915H6.875L10.56 18.5869C10.6857 19.1816 11.0301 19.7158 11.5329 20.096C12.0356 20.4762 12.6647 20.6781 13.31 20.6665H26.675C27.3203 20.6781 27.9494 20.4762 28.4521 20.096C28.9549 19.7158 29.2993 19.1816 29.425 18.5869L31.625 7.74984H8.25" stroke="black" stroke-width="2" stroke-linecap="round" stroke-linejoin="round"/>
</g>
</svg>
